HIERARCHY
ROOT Hips
{
	OFFSET	0.000000	0.000000	0.000000
	CHANNELS 6 Xposition Yposition Zposition Zrotation Xrotation Yrotation
	JOINT LeftUpLeg
	{
		OFFSET	12.830505	-7.049846	-1.643436
		CHANNELS 3 Zrotation Xrotation Yrotation
		JOINT LeftLeg
		{
			OFFSET	0.620834	-39.957502	-1.919341
			CHANNELS 3 Zrotation Xrotation Yrotation
			JOINT LeftFoot
			{
				OFFSET	-0.413890	-44.704761	-3.870325
				CHANNELS 3 Zrotation Xrotation Yrotation
				JOINT LeftFootHeel
				{
					OFFSET	0.164738	-8.918194	-6.555130
					CHANNELS 3 Zrotation Xrotation Yrotation
					End Site
					{
						OFFSET	-0.604053	0.000000	21.044330
					}
				}
			}
		}
	}
	JOINT RightUpLeg
	{
		OFFSET	-12.830505	-7.049846	-1.643436
		CHANNELS 3 Zrotation Xrotation Yrotation
		JOINT RightLeg
		{
			OFFSET	-0.620834	-39.957502	-1.919341
			CHANNELS 3 Zrotation Xrotation Yrotation
			JOINT RightFoot
			{
				OFFSET	0.413890	-44.704761	-3.870325
				CHANNELS 3 Zrotation Xrotation Yrotation
				JOINT RightFootHeel
				{
					OFFSET	-0.164738	-8.918194	-6.555130
					CHANNELS 3 Zrotation Xrotation Yrotation
					End Site
					{
						OFFSET	0.604053	0.000000	21.044330
					}
				}
			}
		}
	}
	JOINT Spine
	{
		OFFSET	0.000000	12.498171	1.820647
		CHANNELS 3 Zrotation Xrotation Yrotation
		JOINT Spine1
		{
			OFFSET	0.000000	7.620000	0.000000
			CHANNELS 3 Zrotation Xrotation Yrotation
			JOINT LeftShoulder
			{
				OFFSET	9.167800	29.136339	-5.551221
				CHANNELS 3 Zrotation Xrotation Yrotation
				JOINT LeftArm
				{
					OFFSET	12.133453	-3.880866	1.461963
					CHANNELS 3 Zrotation Xrotation Yrotation
					JOINT LeftForeArm
					{
						OFFSET	2.507115	-31.664910	-1.069404
						CHANNELS 3 Zrotation Xrotation Yrotation
						JOINT LeftHand
						{
							OFFSET	4.116172	-24.512624	5.009439
							CHANNELS 3 Zrotation Xrotation Yrotation
							End Site
							{
								OFFSET	-0.213136	-10.931856	2.182134
							}
						}
					}
				}
			}
			JOINT RightShoulder
			{
				OFFSET	-9.167800	29.136339	-5.551221
				CHANNELS 3 Zrotation Xrotation Yrotation
				JOINT RightArm
				{
					OFFSET	-12.133453	-3.880866	1.461963
					CHANNELS 3 Zrotation Xrotation Yrotation
					JOINT RightForeArm
					{
						OFFSET	-2.507115	-31.664910	-1.069404
						CHANNELS 3 Zrotation Xrotation Yrotation
						JOINT RightHand
						{
							OFFSET	-4.116172	-24.512624	5.009439
							CHANNELS 3 Zrotation Xrotation Yrotation
							End Site
							{
								OFFSET	0.213136	-10.931856	2.182134
							}
						}
					}
				}
			}
			JOINT Neck
			{
				OFFSET	0.000000	32.926275	-3.635654
				CHANNELS 3 Zrotation Xrotation Yrotation
				JOINT Head
				{
					OFFSET	0.000000	12.481178	4.646143
					CHANNELS 3 Zrotation Xrotation Yrotation
					End Site
					{
						OFFSET	0.000000	17.715205	-2.222063
					}
				}
			}
		}
	}
}
MOTION
Frames:     13
Frame Time: 0.016667
0.000000	103.215772	0.000000	-0.056862	-0.098665	-0.261576	-0.238296	-0.584034	0.290937	0.160512	0.555438	-0.189189	0.137254	0.126464	0.158040	0.	0.	0.	0.144391	-0.722036	0.098798	0.016431	0.641117	0.035100	-0.102884	0.180057	0.127525	0.	0.	0.	0.000000	0.000000	-0.000002	-0.006936	0.041353	-0.040627	0.089960	0.151628	0.057366	0.159308	0.142475	-0.405243	-0.447591	-0.881802	-0.376293	0.146359	-0.612707	0.376973	0.268782	0.286093	-0.011094	-0.743961	0.067623	0.642509	0.577544	-0.915091	0.703639	1.037984	-0.114883	0.737437	0.517076	0.359410	-0.406429	-0.582403	0.058846	0.701345	
0.000000	103.215772	0.000000	-0.056862	-0.098665	-0.261576	-0.238296	-0.584034	0.290937	0.160512	0.555438	-0.189189	0.137254	0.126464	0.158040	0.	0.	0.	0.144391	-0.722036	0.098798	0.016431	0.641117	0.035100	-0.102884	0.180057	0.127525	0.	0.	0.	0.000000	0.000000	-0.000002	-0.006936	0.041353	-0.040627	0.089960	0.151628	0.057366	0.151464	0.157271	-0.405094	-0.455989	-0.893790	-0.378753	0.142778	-0.617179	0.377541	0.268782	0.286093	-0.011094	-0.743961	0.067623	0.642509	0.577544	-0.915091	0.703639	1.050685	-0.128338	0.743478	0.510500	0.363506	-0.425488	-0.575816	0.054606	0.720404	
0.000000	103.215772	0.000000	-0.056862	-0.098665	-0.261576	-0.238296	-0.584034	0.290937	0.160512	0.555438	-0.189189	0.137254	0.126464	0.158040	0.	0.	0.	0.144391	-0.722036	0.098798	0.016431	0.641117	0.035100	-0.102884	0.180057	0.127525	0.	0.	0.	0.000000	0.000000	-0.000002	-0.006936	0.041353	-0.040627	0.089960	0.151628	0.057366	0.151995	0.160392	-0.404825	-0.478139	-0.893915	-0.377580	0.133228	-0.622901	0.373526	0.268782	0.286093	-0.011094	-0.743961	0.067623	0.642509	0.577544	-0.915091	0.703639	1.050685	-0.128338	0.743478	0.509471	0.364146	-0.428456	-0.574785	0.053945	0.723372	
0.000000	103.215772	0.000000	-0.056862	-0.098665	-0.261576	-0.238296	-0.584034	0.290937	0.160512	0.555438	-0.189189	0.137254	0.126464	0.158040	0.	0.	0.	0.144391	-0.722036	0.098798	0.016431	0.641117	0.035100	-0.102884	0.180057	0.127525	0.	0.	0.	0.000000	0.000000	-0.000002	-0.006936	0.041353	-0.040627	0.089960	0.151628	0.057366	0.151995	0.160392	-0.404825	-0.484588	-0.893026	-0.377139	0.120952	-0.625471	0.371651	0.268782	0.286093	-0.011094	-0.743961	0.067623	0.642509	0.577544	-0.915091	0.703639	1.047986	-0.126300	0.742194	0.509471	0.364146	-0.428456	-0.574785	0.053945	0.723372	
0.000000	103.215772	0.000000	-0.056862	-0.098665	-0.261576	-0.238296	-0.584034	0.290937	0.160512	0.555438	-0.189189	0.137254	0.126464	0.158040	0.	0.	0.	0.144391	-0.722036	0.098798	0.016431	0.641117	0.035100	-0.102884	0.180057	0.127525	0.	0.	0.	0.000000	0.000000	-0.000002	-0.006936	0.041353	-0.040627	0.089960	0.151628	0.057366	0.151995	0.160392	-0.404825	-0.484588	-0.893026	-0.377139	0.113398	-0.626162	0.371117	0.268782	0.286093	-0.011094	-0.743961	0.067623	0.642509	0.577544	-0.915091	0.703639	1.042781	-0.122363	0.739709	0.509471	0.364146	-0.428456	-0.574785	0.053945	0.723372	
0.000000	103.215772	0.000000	-0.056862	-0.098665	-0.261576	-0.238296	-0.584034	0.290937	0.160512	0.555438	-0.189189	0.137254	0.126464	0.158040	0.	0.	0.	0.144391	-0.722036	0.098798	0.016431	0.641117	0.035100	-0.102884	0.180057	0.127525	0.	0.	0.	0.000000	0.000000	-0.000002	-0.006936	0.041353	-0.040627	0.089960	0.151628	0.057366	0.151995	0.160392	-0.404825	-0.484588	-0.893026	-0.377139	0.110146	-0.626461	0.370882	0.268782	0.286093	-0.011094	-0.743961	0.067623	0.642509	0.577544	-0.915091	0.703639	1.040268	-0.120464	0.738525	0.509471	0.364146	-0.428456	-0.579272	0.066740	0.728567	
0.000000	103.215772	0.000000	-0.056862	-0.098665	-0.261576	-0.238296	-0.584034	0.290937	0.160512	0.555438	-0.189189	0.137254	0.126464	0.158040	0.	0.	0.	0.144391	-0.722036	0.098798	0.016431	0.641117	0.035100	-0.102884	0.180057	0.127525	0.	0.	0.	0.000000	0.000000	-0.000002	-0.006936	0.041353	-0.040627	0.089960	0.151628	0.057366	0.151995	0.160392	-0.404825	-0.484588	-0.893026	-0.377139	0.110146	-0.626461	0.370882	0.268782	0.286093	-0.011094	-0.743961	0.067623	0.642509	0.577544	-0.915091	0.703639	1.040268	-0.120464	0.738525	0.509471	0.364146	-0.428456	-0.586617	0.080566	0.736419	
0.000000	103.215772	0.000000	-0.056862	-0.098665	-0.261576	-0.238296	-0.584034	0.290937	0.160512	0.555438	-0.189189	0.137254	0.126464	0.158040	0.	0.	0.	0.144391	-0.722036	0.098798	0.016431	0.641117	0.035100	-0.102884	0.180057	0.127525	0.	0.	0.	0.000000	0.000000	-0.000002	-0.006936	0.041353	-0.040627	0.089960	0.151628	0.057366	0.151995	0.160392	-0.404825	-0.484588	-0.893026	-0.377139	0.110146	-0.626461	0.370882	0.268782	0.286093	-0.011094	-0.743961	0.067623	0.642509	0.577544	-0.915091	0.703639	1.040268	-0.120464	0.738525	0.509471	0.364146	-0.428456	-0.600554	0.086835	0.749488	
0.000000	103.215772	0.000000	-0.056862	-0.098665	-0.261576	-0.238296	-0.584034	0.290937	0.160512	0.555438	-0.189189	0.137254	0.126464	0.158040	0.	0.	0.	0.144391	-0.722036	0.098798	0.016431	0.641117	0.035100	-0.102884	0.180057	0.127525	0.	0.	0.	0.000000	0.000000	-0.000002	-0.006936	0.041353	-0.040627	0.089960	0.151628	0.057366	0.151995	0.160392	-0.404825	-0.484588	-0.893026	-0.377139	0.114509	-0.681191	0.374733	0.268782	0.286093	-0.011094	-0.743961	0.067623	0.642509	0.577879	-0.915568	0.700159	1.037121	-0.117780	0.740652	0.509471	0.364146	-0.428456	-0.602859	0.087870	0.751655	
0.000000	103.215772	0.000000	-0.056862	-0.098665	-0.261576	-0.238296	-0.584034	0.290937	0.160512	0.555438	-0.189189	0.137254	0.126464	0.158040	0.	0.	0.	0.144391	-0.722036	0.098798	0.016431	0.641117	0.035100	-0.102884	0.180057	0.127525	0.	0.	0.	0.000000	0.000000	-0.000002	-0.006936	0.041353	-0.040627	0.089960	0.151628	0.057366	0.151995	0.160392	-0.404825	-0.484588	-0.893026	-0.377139	0.118054	-0.725325	0.379053	0.268782	0.286093	-0.011094	-0.743961	0.067623	0.642509	0.576597	-0.946295	0.691420	1.027211	-0.078168	0.743303	0.500345	0.362219	-0.425551	-0.593744	0.089895	0.748828	
0.000452	103.216799	-0.000954	-0.060351	-0.107793	-0.260817	-0.234856	-0.574887	0.290211	0.160512	0.555438	-0.189189	0.137254	0.126464	0.158040	0.	0.	0.	0.147829	-0.712894	0.098011	0.016431	0.641117	0.035100	-0.102884	0.180057	0.127525	0.	0.	0.	0.000000	0.000000	-0.000001	-0.003488	0.050496	-0.041391	0.089960	0.151628	0.057366	0.151995	0.160392	-0.404825	-0.485602	-0.894392	-0.393656	0.125956	-0.749715	0.352778	0.268782	0.286093	-0.011094	-0.743961	0.067623	0.642509	0.573279	-0.998345	0.695903	1.023067	-0.032773	0.733957	0.490905	0.360223	-0.422543	-0.584315	0.091991	0.745902	
0.001091	103.218252	-0.002308	-0.065284	-0.120727	-0.259745	-0.229993	-0.561926	0.289181	0.160512	0.555438	-0.189189	0.137254	0.126464	0.158040	0.	0.	0.	0.152689	-0.699940	0.096895	0.016431	0.641117	0.035100	-0.102884	0.180057	0.127525	0.	0.	0.	-0.000000	0.000000	-0.000000	0.001388	0.063453	-0.042473	0.089960	0.151628	0.057366	0.151995	0.160392	-0.404825	-0.489538	-0.895544	-0.468563	0.146566	-0.857144	0.340267	0.268782	0.286093	-0.011094	-0.743961	0.067623	0.642509	0.577846	-1.025984	0.700252	1.036625	-0.027134	0.737622	0.490905	0.360223	-0.422543	-0.584315	0.091991	0.745902	
0.001426	103.219028	-0.003016	-0.067877	-0.127514	-0.259181	-0.227436	-0.555126	0.288639	0.160512	0.555438	-0.189189	0.137254	0.126464	0.158040	0.	0.	0.	0.155244	-0.693143	0.096307	0.016431	0.641117	0.035100	-0.102884	0.180057	0.127525	0.	0.	0.	0.000000	-0.000000	-0.000001	0.003950	0.070252	-0.043043	0.089960	0.151628	0.057366	0.151995	0.160392	-0.404825	-0.491312	-0.894245	-0.507495	0.154727	-0.920068	0.356567	0.268782	0.286093	-0.011094	-0.743961	0.067623	0.642509	0.589974	-1.026589	0.701788	1.045853	-0.042547	0.746430	0.490905	0.360223	-0.422543	-0.584315	0.091991	0.745902	
